HIERARCHY
ROOT Hips
{
	OFFSET 0.000000 121.760803 0.000000
	CHANNELS 6 Xposition Yposition Zposition Xrotation Yrotation Zrotation 
	JOINT Spine
	{
		OFFSET 0.072000 7.257294 -0.789700
		CHANNELS 3 Xrotation Yrotation Zrotation
		JOINT Spine1
		{
			OFFSET 0.000000 12.508769 -0.658067
			CHANNELS 3 Xrotation Yrotation Zrotation
			JOINT Spine1_split
			{
				OFFSET 0.000000 12.508769 -0.658067
				CHANNELS 3 Xrotation Yrotation Zrotation
				JOINT Spine2
				{
					OFFSET 0.000000 12.508769 -0.658067
					CHANNELS 3 Xrotation Yrotation Zrotation
					JOINT Neck
					{
						OFFSET 0.000000 14.033295 7.520400
						CHANNELS 3 Xrotation Yrotation Zrotation
						JOINT Head
						{
							OFFSET 0.000000 8.198502 5.703100
							CHANNELS 3 Xrotation Yrotation Zrotation
							JOINT HeadTop_End
							{
								OFFSET 0.000000 17.760803 13.332701
								CHANNELS 3 Xrotation Yrotation Zrotation
								End Site
								{
									OFFSET 0.000000 0.000000 0.000000
								}
							}
						}
					}
					JOINT LeftShoulder
					{
						OFFSET 6.292450 5.785301 -0.669000
						CHANNELS 3 Xrotation Yrotation Zrotation
						JOINT LeftShoulder_split
						{
							OFFSET 6.292450 5.785301 -0.669000
							CHANNELS 3 Xrotation Yrotation Zrotation
							JOINT LeftArm
							{
								OFFSET 13.907140 -6.093903 1.965100
								CHANNELS 3 Xrotation Yrotation Zrotation
								JOINT LeftForeArm
								{
									OFFSET 34.140198 0.000000 0.000000
									CHANNELS 3 Xrotation Yrotation Zrotation
									JOINT LeftHand
									{
										OFFSET 40.960209 0.000000 0.000000
										CHANNELS 3 Xrotation Yrotation Zrotation
										JOINT LeftHandThumb1
										{
											OFFSET 10.006996 -7.170425 9.573125
											CHANNELS 3 Xrotation Yrotation Zrotation
											JOINT LeftHandThumb2
											{
												OFFSET 1.835007 -1.059448 1.059443
												CHANNELS 3 Xrotation Yrotation Zrotation
												JOINT LeftHandThumb3
												{
													OFFSET 2.112267 -1.219513 1.219518
													CHANNELS 3 Xrotation Yrotation Zrotation
													JOINT LeftHandThumb4
													{
														OFFSET 4.843811 -2.796570 2.796576
														CHANNELS 3 Xrotation Yrotation Zrotation
														End Site
														{
															OFFSET 0.000000 0.000000 0.000000
														}
													}
												}
											}
										}
										JOINT LeftHandIndex1
										{
											OFFSET 18.389847 -0.922348 4.596882
											CHANNELS 3 Xrotation Yrotation Zrotation
											JOINT LeftHandIndex2
											{
												OFFSET 4.711273 0.000000 0.000000
												CHANNELS 3 Xrotation Yrotation Zrotation
												JOINT LeftHandIndex3
												{
													OFFSET 2.886131 0.000000 0.000000
													CHANNELS 3 Xrotation Yrotation Zrotation
													JOINT LeftHandIndex4
													{
														OFFSET 6.145912 0.000000 0.000000
														CHANNELS 3 Xrotation Yrotation Zrotation
														End Site
														{
															OFFSET 0.000000 0.000000 0.000000
														}
													}
												}
											}
										}
										JOINT LeftHandMiddle1
										{
											OFFSET 18.013008 0.000000 0.000000
											CHANNELS 3 Xrotation Yrotation Zrotation
											JOINT LeftHandMiddle2
											{
												OFFSET 4.946693 0.000000 0.000000
												CHANNELS 3 Xrotation Yrotation Zrotation
												JOINT LeftHandMiddle3
												{
													OFFSET 3.342232 0.000000 0.000000
													CHANNELS 3 Xrotation Yrotation Zrotation
													JOINT LeftHandMiddle4
													{
														OFFSET 4.461754 0.000000 0.000000
														CHANNELS 3 Xrotation Yrotation Zrotation
														End Site
														{
															OFFSET 0.000000 0.000000 0.000000
														}
													}
												}
											}
										}
										JOINT LeftHandRing1
										{
											OFFSET 15.849892 -0.102921 -4.126150
											CHANNELS 3 Xrotation Yrotation Zrotation
											JOINT LeftHandRing2
											{
												OFFSET 3.527054 0.000000 0.000000
												CHANNELS 3 Xrotation Yrotation Zrotation
												JOINT LeftHandRing3
												{
													OFFSET 2.961098 0.000000 0.000000
													CHANNELS 3 Xrotation Yrotation Zrotation
													JOINT LeftHandRing4
													{
														OFFSET 4.927200 0.000000 0.000000
														CHANNELS 3 Xrotation Yrotation Zrotation
														End Site
														{
															OFFSET 0.000000 0.000000 0.000000
														}
													}
												}
											}
										}
										JOINT LeftHandPinky1
										{
											OFFSET 12.791824 -0.832031 -6.799156
											CHANNELS 3 Xrotation Yrotation Zrotation
											JOINT LeftHandPinky2
											{
												OFFSET 3.327133 0.000000 0.000000
												CHANNELS 3 Xrotation Yrotation Zrotation
												JOINT LeftHandPinky3
												{
													OFFSET 3.014900 0.000000 0.000000
													CHANNELS 3 Xrotation Yrotation Zrotation
													JOINT LeftHandPinky4
													{
														OFFSET 5.847786 0.000000 0.000000
														CHANNELS 3 Xrotation Yrotation Zrotation
														End Site
														{
															OFFSET 0.000000 0.000000 0.000000
														}
													}
												}
											}
										}
									}
								}
							}
						}
					}
					JOINT RightShoulder
					{
						OFFSET -6.292450 5.785301 -0.669000
						CHANNELS 3 Xrotation Yrotation Zrotation
						JOINT RightShoulder_split
						{
							OFFSET -6.292450 5.785301 -0.669000
							CHANNELS 3 Xrotation Yrotation Zrotation
							JOINT RightArm
							{
								OFFSET -13.907140 -6.093903 1.965100
								CHANNELS 3 Xrotation Yrotation Zrotation
								JOINT RightForeArm
								{
									OFFSET -34.140198 0.000000 0.000000
									CHANNELS 3 Xrotation Yrotation Zrotation
									JOINT RightHand
									{
										OFFSET -40.960209 0.000000 0.000000
										CHANNELS 3 Xrotation Yrotation Zrotation
										JOINT RightHandThumb1
										{
											OFFSET -10.007050 -7.170456 9.573117
											CHANNELS 3 Xrotation Yrotation Zrotation
											JOINT RightHandThumb2
											{
												OFFSET -1.835007 -1.059448 1.059443
												CHANNELS 3 Xrotation Yrotation Zrotation
												JOINT RightHandThumb3
												{
													OFFSET -2.112267 -1.219513 1.219518
													CHANNELS 3 Xrotation Yrotation Zrotation
													JOINT RightHandThumb4
													{
														OFFSET -4.843834 -2.796585 2.796590
														CHANNELS 3 Xrotation Yrotation Zrotation
														End Site
														{
															OFFSET 0.000000 0.000000 0.000000
														}
													}
												}
											}
										}
										JOINT RightHandIndex1
										{
											OFFSET -18.389870 -0.922424 4.596786
											CHANNELS 3 Xrotation Yrotation Zrotation
											JOINT RightHandIndex2
											{
												OFFSET -4.711273 0.000000 0.000000
												CHANNELS 3 Xrotation Yrotation Zrotation
												JOINT RightHandIndex3
												{
													OFFSET -2.886131 0.000000 0.000000
													CHANNELS 3 Xrotation Yrotation Zrotation
													JOINT RightHandIndex4
													{
														OFFSET -6.145920 0.000000 0.000000
														CHANNELS 3 Xrotation Yrotation Zrotation
														End Site
														{
															OFFSET 0.000000 0.000000 0.000000
														}
													}
												}
											}
										}
										JOINT RightHandMiddle1
										{
											OFFSET -18.013008 0.000000 0.000000
											CHANNELS 3 Xrotation Yrotation Zrotation
											JOINT RightHandMiddle2
											{
												OFFSET -4.946693 0.000000 0.000000
												CHANNELS 3 Xrotation Yrotation Zrotation
												JOINT RightHandMiddle3
												{
													OFFSET -3.342232 0.000000 0.000000
													CHANNELS 3 Xrotation Yrotation Zrotation
													JOINT RightHandMiddle4
													{
														OFFSET -4.461754 0.000000 0.000000
														CHANNELS 3 Xrotation Yrotation Zrotation
														End Site
														{
															OFFSET 0.000000 0.000000 0.000000
														}
													}
												}
											}
										}
										JOINT RightHandRing1
										{
											OFFSET -15.849876 -0.102936 -4.126237
											CHANNELS 3 Xrotation Yrotation Zrotation
											JOINT RightHandRing2
											{
												OFFSET -3.527054 0.000000 0.000000
												CHANNELS 3 Xrotation Yrotation Zrotation
												JOINT RightHandRing3
												{
													OFFSET -2.961098 0.000000 0.000000
													CHANNELS 3 Xrotation Yrotation Zrotation
													JOINT RightHandRing4
													{
														OFFSET -4.927200 0.000000 0.000000
														CHANNELS 3 Xrotation Yrotation Zrotation
														End Site
														{
															OFFSET 0.000000 0.000000 0.000000
														}
													}
												}
											}
										}
										JOINT RightHandPinky1
										{
											OFFSET -12.791786 -0.832077 -6.799222
											CHANNELS 3 Xrotation Yrotation Zrotation
											JOINT RightHandPinky2
											{
												OFFSET -3.327133 0.000000 0.000000
												CHANNELS 3 Xrotation Yrotation Zrotation
												JOINT RightHandPinky3
												{
													OFFSET -3.014900 0.000000 0.000000
													CHANNELS 3 Xrotation Yrotation Zrotation
													JOINT RightHandPinky4
													{
														OFFSET -5.847786 0.000000 0.000000
														CHANNELS 3 Xrotation Yrotation Zrotation
														End Site
														{
															OFFSET 0.000000 0.000000 0.000000
														}
													}
												}
											}
										}
									}
								}
							}
						}
					}
				}
			}
		}
	}
	JOINT LeftUpLeg
	{
		OFFSET 13.026900 -6.336304 -1.092800
		CHANNELS 3 Xrotation Yrotation Zrotation
		JOINT LeftLeg
		{
			OFFSET 0.524474 -46.096886 9.782700
			CHANNELS 3 Xrotation Yrotation Zrotation
			JOINT LeftFoot
			{
				OFFSET -0.524474 -53.427422 -12.948200
				CHANNELS 3 Xrotation Yrotation Zrotation
				JOINT LeftToeBase
				{
					OFFSET 0.192200 -14.009700 16.364100
					CHANNELS 3 Xrotation Yrotation Zrotation
					JOINT LeftToe_End
					{
						OFFSET -1.784700 -0.561700 9.474800
						CHANNELS 3 Xrotation Yrotation Zrotation
						End Site
						{
							OFFSET 0.000000 0.000000 0.000000
						}
					}
				}
			}
		}
	}
	JOINT RightUpLeg
	{
		OFFSET -12.883000 -6.336304 -1.092800
		CHANNELS 3 Xrotation Yrotation Zrotation
		JOINT RightLeg
		{
			OFFSET -0.524587 -46.096825 9.782800
			CHANNELS 3 Xrotation Yrotation Zrotation
			JOINT RightFoot
			{
				OFFSET 0.524587 -53.427383 -12.948300
				CHANNELS 3 Xrotation Yrotation Zrotation
				JOINT RightToeBase
				{
					OFFSET -0.192200 -14.009700 16.364100
					CHANNELS 3 Xrotation Yrotation Zrotation
					JOINT RightToe_End
					{
						OFFSET 1.784700 -0.561700 9.474800
						CHANNELS 3 Xrotation Yrotation Zrotation
						End Site
						{
							OFFSET 0.000000 0.000000 0.000000
						}
					}
				}
			}
		}
	}
}
MOTION
Frames: 5
Frame Time: 0.016667
-1.860046 107.764900 0.512759 -5.676221 -42.640212 -2.914539 5.898342 0.757727 0.138505 11.805243 0.991256 -0.356034 0.000000 0.000000 0.000000 11.805239 0.991256 -0.356033 5.454844 -28.041996 -1.570758 -9.679880 -42.734544 2.179719 0.000000 -0.000001 0.000002 0.953421 -3.294061 -6.337557 0.000000 0.000000 0.000000 -7.803578 10.695482 -60.595710 -1.858017 -56.426351 -5.060432 4.516198 -4.170921 22.267586 11.334904 9.730352 -4.479188 3.334388 8.219289 1.772106 -0.000001 -0.000012 -0.000016 -0.000001 -0.000001 0.000000 2.657362 -3.651129 -37.231467 -2.225259 -2.598647 -50.721965 -0.000003 -0.000001 0.000007 -0.000001 -0.000000 -0.000001 0.107966 6.609303 -47.483875 -2.786378 -4.412143 -56.251252 0.000002 -0.000012 -0.000011 -0.000004 -0.000004 0.000001 -2.805082 11.224156 -62.315367 -2.190465 -4.064423 -66.809297 -0.000006 -0.000002 -0.000004 -0.000001 -0.000002 -0.000000 -6.755477 4.974055 -66.027958 -1.326972 -6.176959 -73.865586 -0.000002 0.000003 0.000000 -0.000002 0.000000 -0.000000 1.781020 9.143866 7.041887 0.000000 0.000000 0.000000 5.733457 -24.152575 68.587646 -7.143950 60.700233 7.121714 7.495356 6.265635 -16.551765 2.659612 -9.639235 12.705339 9.977274 -18.153789 0.046843 -0.000002 0.000001 0.000004 -0.000002 -0.000000 0.000003 3.448080 -2.832145 46.578134 -2.544538 2.250442 60.768897 -0.000000 0.000002 -0.000000 -0.000001 -0.000001 -0.000001 -1.797309 -0.803626 42.426891 -4.426265 4.278484 82.714574 -0.000000 -0.000001 0.000010 -0.000003 0.000001 -0.000000 -4.363418 -0.803127 50.285348 -4.892186 5.732346 89.685998 -0.000003 0.000001 0.000001 -0.000001 -0.000002 0.000000 -8.591770 0.616682 50.078848 -5.070533 9.380858 93.712217 -0.000001 -0.000004 0.000001 0.000003 0.000000 0.000001 -27.508063 4.809837 11.258901 33.119546 -11.806913 2.213534 -3.459157 0.357401 -9.789880 -2.715870 -3.120914 0.659119 0.000000 0.000002 0.000000 -1.989038 -15.215003 -14.757249 31.119035 18.976356 -4.392866 -27.137901 -1.032311 4.191969 -1.576683 -1.962088 2.928650 -0.000000 -0.000002 0.000000 
-1.892456 107.861320 0.492783 -5.763878 -44.540606 -3.041171 5.945646 0.478526 0.170866 11.895482 0.464791 -0.236211 0.000000 0.000000 0.000000 11.895482 0.464802 -0.236211 5.195386 -27.982383 -1.762660 -9.294772 -43.262818 2.943803 -0.000000 0.000001 0.000000 0.886143 -3.734527 -6.257962 0.000000 0.000000 0.000000 -7.277722 11.319157 -60.862354 -1.912508 -56.844065 -5.070164 4.598231 -4.482976 22.325440 11.166523 9.800962 -4.305342 3.299758 8.317254 1.736538 0.000001 -0.000008 -0.000016 -0.000001 -0.000002 0.000001 2.430047 -3.828144 -36.215534 -2.114161 -2.506281 -49.528451 -0.000003 0.000001 0.000006 -0.000001 -0.000001 -0.000002 0.215179 6.756687 -46.504501 -2.677649 -4.338594 -55.049972 0.000004 -0.000014 -0.000012 0.000000 0.000004 0.000000 -2.571704 11.355779 -61.525798 -2.125223 -4.036819 -65.648370 -0.000001 -0.000003 -0.000002 0.000001 0.000000 0.000001 -6.144470 5.321286 -65.117275 -1.302553 -6.170226 -72.693690 0.000002 -0.000002 0.000002 -0.000000 0.000001 0.000000 1.849863 8.523535 7.171784 0.000000 0.000000 0.000000 5.962386 -24.111208 68.526987 -7.077228 61.206329 7.218152 7.457464 6.199121 -16.983243 2.643644 -9.750527 12.704176 10.045715 -18.113356 0.095466 0.000002 -0.000001 -0.000000 0.000000 -0.000001 0.000006 3.693276 -2.557004 47.479913 -2.589260 2.274958 61.275396 0.000000 0.000001 -0.000002 0.000001 0.000001 0.000002 -1.828334 -0.767082 43.027781 -4.489844 4.286466 83.433616 -0.000005 0.000000 0.000007 -0.000001 0.000004 -0.000001 -4.453572 -0.817813 50.903197 -4.955600 5.732755 90.417006 -0.000000 -0.000000 0.000002 0.000001 -0.000001 0.000001 -8.704304 0.527757 50.621619 -5.118178 9.370080 94.249507 -0.000001 -0.000003 0.000002 0.000000 -0.000001 0.000003 -26.948697 5.131231 11.943211 32.907175 -10.581603 2.055993 -3.684691 0.443116 -10.208961 -2.692463 -3.093344 0.643727 -0.000000 -0.000001 0.000000 -2.974508 -15.072037 -14.949380 31.452444 19.530593 -4.721360 -26.711878 -0.975057 4.354436 -1.482202 -1.713852 2.855416 -0.000000 0.000004 0.000000 
-1.932539 107.959366 0.463501 -5.888797 -46.448380 -3.172957 5.994222 0.194776 0.194830 11.989268 -0.070021 -0.121171 0.000000 0.000000 0.000000 11.989278 -0.070044 -0.121163 4.858842 -27.854881 -2.018467 -8.864683 -43.760264 3.691624 0.000001 0.000002 -0.000001 0.810229 -4.308829 -6.381135 0.000000 0.000000 0.000000 -6.676086 12.150741 -60.876711 -2.277363 -57.498670 -5.268889 4.466194 -4.693826 22.282223 10.967473 9.825533 -4.124766 3.258299 8.415891 1.703280 0.000001 -0.000011 -0.000016 0.000001 -0.000002 0.000001 2.194154 -4.002794 -35.091121 -1.993683 -2.401476 -48.208927 -0.000003 0.000003 0.000008 0.000001 0.000001 -0.000001 0.327763 6.910730 -45.419740 -2.561320 -4.255995 -53.740765 0.000003 -0.000015 -0.000012 0.000001 0.000002 -0.000001 -2.325161 11.481180 -60.605471 -2.055389 -4.005511 -64.391267 -0.000007 -0.000001 -0.000004 0.000003 0.000003 -0.000001 -5.502792 5.688520 -64.103101 -1.276566 -6.162469 -71.433854 0.000003 0.000002 0.000002 0.000000 0.000000 -0.000001 1.951315 7.799975 7.121227 0.000000 0.000000 0.000000 6.182273 -23.943563 68.623839 -6.650505 61.549212 7.002528 7.654153 6.217750 -17.779956 2.794235 -9.711140 12.808126 10.023095 -18.127599 0.049067 -0.000000 0.000000 -0.000004 0.000000 -0.000000 0.000001 3.955463 -2.272763 48.348020 -2.630133 2.296960 61.736912 0.000003 -0.000005 -0.000003 -0.000000 -0.000002 0.000002 -1.858071 -0.736064 43.602900 -4.552201 4.293546 84.138744 -0.000003 0.000001 0.000007 -0.000003 -0.000001 -0.000001 -4.541479 -0.832927 51.507491 -5.016388 5.732365 91.119744 0.000002 0.000002 0.000001 0.000002 -0.000002 0.000002 -8.806164 0.435163 51.132053 -5.163180 9.357127 94.720777 -0.000002 -0.000001 0.000000 -0.000000 0.000001 -0.000004 -26.340239 5.479205 12.595283 32.677712 -9.347612 1.893753 -3.898663 0.530281 -10.638257 -2.671764 -3.066277 0.628141 -0.000000 -0.000001 -0.000000 -3.942989 -14.884061 -15.109485 31.798953 19.969511 -5.072040 -26.276551 -0.925181 4.539599 -1.356161 -1.475262 2.774606 -0.000000 -0.000002 -0.000000 
-1.971590 108.048492 0.437623 -6.042610 -48.392594 -3.322077 6.035707 -0.110989 0.219872 12.069950 -0.647005 0.003704 0.000000 0.000000 0.000000 12.069940 -0.647006 0.003701 4.521426 -27.652198 -2.326645 -8.508130 -44.111431 4.370745 -0.000000 -0.000000 0.000001 0.756126 -4.664584 -6.306318 0.000000 0.000000 0.000000 -6.104445 12.854873 -61.074862 -2.488525 -57.874843 -5.355642 4.470212 -4.729119 21.933242 10.762684 9.805474 -3.951564 3.232085 8.534460 1.656960 -0.000003 -0.000009 -0.000019 0.000002 -0.000001 0.000002 1.952091 -4.165059 -33.893424 -1.868546 -2.287428 -46.810780 -0.000006 0.000004 0.000008 -0.000000 0.000001 -0.000001 0.445437 7.069467 -44.252444 -2.441589 -4.166771 -52.371852 0.000002 -0.000014 -0.000013 0.000001 0.000001 0.000004 -2.065077 11.603901 -59.582909 -1.981976 -3.970597 -63.058533 -0.000001 -0.000004 0.000000 -0.000001 -0.000003 0.000002 -4.835938 6.085352 -62.981564 -1.248574 -6.153386 -70.072290 0.000002 0.000002 0.000002 0.000002 0.000002 0.000000 2.018772 7.202335 7.250126 0.000000 0.000000 0.000000 6.408700 -23.946225 68.399864 -6.276818 62.142407 6.935129 7.705297 6.072075 -18.489230 3.013029 -9.639049 12.943713 9.983771 -18.171744 -0.016013 -0.000003 -0.000000 0.000001 0.000000 0.000001 -0.000002 4.245903 -1.998519 49.180422 -2.670623 2.318249 62.191242 0.000002 -0.000002 -0.000003 -0.000000 0.000003 -0.000003 -1.884914 -0.716105 44.128811 -4.613437 4.299704 84.829283 0.000002 -0.000002 0.000011 0.000000 0.000001 0.000000 -4.614516 -0.847622 52.003718 -5.073346 5.731341 91.776193 -0.000000 -0.000002 0.000000 0.000003 0.000002 -0.000002 -8.899408 0.347956 51.604620 -5.216867 9.348924 95.474502 -0.000002 0.000000 0.000005 0.000000 -0.000003 0.000002 -25.693360 5.810628 13.214888 32.463107 -8.046087 1.744965 -4.111934 0.622008 -11.103237 -2.653137 -3.037881 0.611150 -0.000000 0.000001 0.000000 -4.928057 -14.680918 -15.252507 32.168869 20.400742 -5.429668 -25.817640 -0.883204 4.751237 -1.294143 -1.302454 2.708698 -0.000000 -0.000002 0.000000 
-2.004642 108.130440 0.404499 -6.146255 -50.247936 -3.413988 6.065831 -0.362390 0.222065 12.129427 -1.118510 0.088667 0.000000 0.000000 0.000000 12.129429 -1.118537 0.088678 4.097782 -27.486804 -2.682835 -7.897001 -44.634999 5.189463 -0.000001 0.000002 0.000002 0.680390 -5.223099 -6.405301 0.000000 0.000000 0.000000 -5.606932 13.591765 -61.004770 -2.951126 -58.492046 -5.571378 4.296791 -4.406532 22.079063 10.551410 9.759174 -3.787386 3.214280 8.658586 1.605031 -0.000001 -0.000009 -0.000016 0.000000 0.000001 -0.000005 1.707587 -4.311733 -32.615851 -1.740300 -2.164380 -45.342651 -0.000003 0.000003 0.000005 -0.000002 0.000002 -0.000001 0.564803 7.231717 -42.998715 -2.318220 -4.069905 -50.932700 0.000003 -0.000008 -0.000014 -0.000004 -0.000000 -0.000002 -1.795394 11.719145 -58.472840 -1.905354 -3.931843 -61.649124 -0.000003 -0.000000 -0.000005 -0.000002 0.000000 0.000000 -4.156393 6.506159 -61.770516 -1.219215 -6.143067 -68.627774 0.000000 0.000004 0.000001 -0.000001 0.000001 -0.000001 2.096432 6.732503 7.083142 0.000000 0.000000 0.000000 6.919935 -24.109970 68.744249 -6.249794 62.398320 6.854610 7.748994 6.224253 -19.022082 3.203388 -9.588701 13.059586 9.959626 -18.211513 -0.063772 0.000002 0.000001 0.000003 0.000006 0.000002 0.000000 4.551090 -1.713753 49.999392 -2.710271 2.338753 62.635130 -0.000002 -0.000003 -0.000001 -0.000001 0.000001 0.000000 -1.910124 -0.701809 44.634531 -4.673232 4.305019 85.504181 -0.000003 0.000000 0.000011 -0.000001 -0.000001 0.000000 -4.683908 -0.862919 52.477163 -5.129168 5.729443 92.422500 0.000004 -0.000005 0.000002 0.000003 0.000001 -0.000000 -8.997548 0.272901 52.076497 -5.271522 9.342669 96.280341 -0.000001 -0.000005 0.000005 -0.000003 -0.000000 0.000002 -25.096828 6.137301 13.770345 32.247850 -6.801895 1.592165 -4.298916 0.712041 -11.550867 -2.647456 -3.011304 0.592853 -0.000000 -0.000000 -0.000000 -5.920708 -14.433429 -15.365098 32.541644 20.657028 -5.779373 -25.350005 -0.859686 5.008397 -1.245894 -1.155877 2.637939 -0.000000 -0.000002 0.000000 
